<svg width="126" height="134" viewBox="0 0 126 134" fill="none" xmlns="http://www.w3.org/2000/svg">
<g clip-path="url(#clip0_4502_2841)">
<g filter="url(#filter0_d_4502_2841)">
<g filter="url(#filter1_d_4502_2841)">
<path d="M63 125.332C95.5848 125.332 122 97.4927 122 63.1512C122 28.8097 95.5848 0.970459 63 0.970459C30.4152 0.970459 4 28.8097 4 63.1512C4 97.4927 30.4152 125.332 63 125.332Z" fill="white"/>
</g>
<path d="M90.7633 26.5052C85.2071 23.1709 79.0492 22.3181 72.9438 24.0822C66.8414 25.8463 61.9571 29.8948 59.0826 35.6643L57.1838 39.1771L53.8507 37.176C48.5867 33.7586 42.4258 32.9027 36.3234 34.6699C30.2209 36.434 25.3366 40.4825 22.4621 46.252C16.2136 58.2682 20.2011 73.5818 31.3135 80.2503L71.3401 105.566C72.4502 106.235 73.4025 106.287 74.5651 105.951C75.7278 105.616 76.4405 104.751 77.1533 103.886L99.6906 60.8113C105.647 48.8782 101.659 33.5647 90.7604 26.5052H90.7633ZM74.2058 62.9294L69.935 64.164C69.5085 64.2871 69.0031 64.1116 68.6409 63.8931L66.8122 62.1628L66.2104 67.4982C66.0439 68.0308 65.5911 68.6466 65.0215 68.8098C64.4518 68.9729 63.9465 68.7974 63.5054 68.2802L60.4205 64.6566L59.3864 66.5685C59.2199 67.1011 58.9745 67.332 58.5451 67.4551L54.2743 68.6897C53.4213 68.936 52.6939 68.5019 52.4602 67.5998C52.2265 66.6978 52.6384 65.9342 53.4943 65.6879L57.1955 64.6166L58.9512 61.3654C59.1586 60.9837 59.5471 60.7097 60.1138 60.5465C60.5812 60.5742 61.0837 60.7497 61.3057 61.0083L63.5112 63.5975L64.0867 58.7547C64.113 58.2621 64.5628 57.6494 64.9923 57.5263C65.5619 57.3631 66.0264 57.3877 66.4295 57.7572L69.8649 60.959L73.4229 59.9307C74.2759 59.6845 75.0033 60.1186 75.237 61.0206C75.4707 61.9227 75.0588 62.6862 74.2029 62.9325L74.2058 62.9294Z" fill="#32E0C4"/>
<g opacity="0.5">
<path d="M99.9389 23.1895C90.0711 12.7896 76.9518 7.06323 63 7.06323C49.0483 7.06323 35.9261 12.7896 26.0611 23.1895C16.1932 33.5894 10.7598 47.4159 10.7598 62.1199C10.7598 74.1453 14.3733 85.5673 21.209 95.1575C26.8499 103.07 34.5327 109.301 43.1708 113.057C43.3548 113.137 43.5651 113.014 43.5943 112.805C43.6089 112.691 43.6323 112.58 43.6586 112.469C43.7346 112.146 43.8835 111.835 44.0793 111.558C44.1056 111.521 44.1231 111.481 44.1319 111.438C44.1494 111.355 44.1698 111.272 44.1932 111.191L44.2575 110.723C44.2575 110.687 44.2575 110.653 44.2575 110.616C44.2633 110.477 44.1874 110.351 44.0676 110.299C23.432 101.352 10.7452 78.9019 14.0549 54.3923C17.0696 32.0224 33.6593 14.2705 54.8265 10.6776C85.7038 5.43767 112.474 30.5477 112.474 62.1229C112.474 85.5242 97.713 105.705 77.0424 112.13C76.8788 112.18 76.7882 112.358 76.8321 112.531C76.8554 112.632 76.8759 112.734 76.8905 112.839C76.8905 112.857 76.8963 112.876 76.9051 112.894C76.9489 113.017 76.984 113.143 77.0132 113.273C77.0161 113.291 77.0219 113.307 77.0307 113.325C77.1125 113.51 77.1738 113.707 77.2206 113.91C77.2264 113.935 77.2352 113.956 77.2439 113.978C77.352 114.193 77.4367 114.424 77.4981 114.667C77.5419 114.849 77.7172 114.96 77.8895 114.907C99.6877 108.104 115.246 86.8142 115.246 62.126C115.246 47.419 109.813 33.5925 99.9448 23.1957L99.9389 23.1895Z" fill="black"/>
</g>
<path d="M76.7823 112.217L77.6938 114.963" stroke="white" stroke-width="0.277269" stroke-miterlimit="10"/>
<path d="M44.3801 110.446L43.6147 113.242" stroke="white" stroke-width="0.277269" stroke-miterlimit="10"/>
<path d="M43.3723 111.576C48.6714 113.519 75.3393 126.157 70.8757 87.5222C70.8757 87.5222 83.8751 84.3419 82.9637 62.9172C82.0523 41.4924 77.3783 40.1716 63.8501 44.6111" stroke="#262626" stroke-width="2.07952" stroke-miterlimit="10"/>
<path d="M63.8501 48.8877C66.0926 48.8877 67.9105 46.9717 67.9105 44.6083C67.9105 42.2448 66.0926 40.3289 63.8501 40.3289C61.6075 40.3289 59.7896 42.2448 59.7896 44.6083C59.7896 46.9717 61.6075 48.8877 63.8501 48.8877Z" fill="#262626"/>
<path d="M77.2381 119.036C80.0921 119.036 82.4057 116.598 82.4057 113.59C82.4057 110.582 80.0921 108.144 77.2381 108.144C74.3841 108.144 72.0704 110.582 72.0704 113.59C72.0704 116.598 74.3841 119.036 77.2381 119.036Z" fill="#262626"/>
<path d="M70.8756 87.5221C69.7481 87.9192 54.2948 89.8557 47.7804 75.4135C41.2369 60.9097 36.0692 49.734 53.62 48.29" stroke="#262626" stroke-width="2.07952" stroke-miterlimit="10"/>
<path d="M53.62 52.1169C55.8625 52.1169 57.6805 50.201 57.6805 47.8375C57.6805 45.4741 55.8625 43.5581 53.62 43.5581C51.3774 43.5581 49.5594 45.4741 49.5594 47.8375C49.5594 50.201 51.3774 52.1169 53.62 52.1169Z" fill="#262626"/>
</g>
</g>
<defs>
<filter id="filter0_d_4502_2841" x="0" y="0.970459" width="126" height="132.362" filterUnits="userSpaceOnUse" color-interpolation-filters="sRGB">
<feFlood flood-opacity="0" result="BackgroundImageFix"/>
<feColorMatrix in="SourceAlpha" type="matrix" values="0 0 0 0 0 0 0 0 0 0 0 0 0 0 0 0 0 0 127 0" result="hardAlpha"/>
<feOffset dy="4"/>
<feGaussianBlur stdDeviation="2"/>
<feComposite in2="hardAlpha" operator="out"/>
<feColorMatrix type="matrix" values="0 0 0 0 0 0 0 0 0 0 0 0 0 0 0 0 0 0 0.25 0"/>
<feBlend mode="normal" in2="BackgroundImageFix" result="effect1_dropShadow_4502_2841"/>
<feBlend mode="normal" in="SourceGraphic" in2="effect1_dropShadow_4502_2841" result="shape"/>
</filter>
<filter id="filter1_d_4502_2841" x="0" y="0.970459" width="126" height="132.362" filterUnits="userSpaceOnUse" color-interpolation-filters="sRGB">
<feFlood flood-opacity="0" result="BackgroundImageFix"/>
<feColorMatrix in="SourceAlpha" type="matrix" values="0 0 0 0 0 0 0 0 0 0 0 0 0 0 0 0 0 0 127 0" result="hardAlpha"/>
<feOffset dy="4"/>
<feGaussianBlur stdDeviation="2"/>
<feComposite in2="hardAlpha" operator="out"/>
<feColorMatrix type="matrix" values="0 0 0 0 0 0 0 0 0 0 0 0 0 0 0 0 0 0 0.25 0"/>
<feBlend mode="normal" in2="BackgroundImageFix" result="effect1_dropShadow_4502_2841"/>
<feBlend mode="normal" in="SourceGraphic" in2="effect1_dropShadow_4502_2841" result="shape"/>
</filter>
<clipPath id="clip0_4502_2841">
<rect width="126" height="134" fill="white"/>
</clipPath>
</defs>
</svg>
