<svg width="216" height="136" viewBox="0 0 216 136" fill="none" xmlns="http://www.w3.org/2000/svg">
<g clip-path="url(#clip0_1_1117)">
<path d="M216 55.8565H215.635V45.8457C215.635 45.0848 215.486 44.3314 215.195 43.6285C214.904 42.9255 214.478 42.2868 213.941 41.7488C213.404 41.2107 212.766 40.784 212.065 40.4928C211.363 40.2016 210.611 40.0518 209.851 40.0518H188.679C187.919 40.0518 187.167 40.2016 186.466 40.4928C185.764 40.784 185.126 41.2107 184.589 41.7488C184.052 42.2868 183.626 42.9255 183.335 43.6285C183.045 44.3314 182.895 45.0848 182.895 45.8457V100.765C182.895 101.526 183.045 102.28 183.335 102.983C183.626 103.686 184.052 104.324 184.589 104.862C185.126 105.4 185.764 105.827 186.466 106.118C187.167 106.41 187.919 106.559 188.679 106.559H209.851C210.611 106.559 211.363 106.41 212.065 106.118C212.766 105.827 213.404 105.4 213.941 104.862C214.478 104.324 214.904 103.686 215.195 102.983C215.486 102.28 215.635 101.526 215.635 100.765V62.9823H216V55.8565Z" fill="#212121"/>
<path d="M214.404 46.1861V101.026C214.404 102.174 213.949 103.274 213.139 104.086C212.329 104.897 211.23 105.353 210.084 105.354H188.81C188.243 105.353 187.681 105.241 187.157 105.024C186.633 104.806 186.157 104.488 185.756 104.086C185.355 103.684 185.037 103.207 184.82 102.682C184.604 102.157 184.492 101.594 184.492 101.026V46.1861C184.492 45.0389 184.947 43.9387 185.757 43.1275C186.567 42.3163 187.665 41.8606 188.81 41.8606H191.391C191.265 42.1727 191.216 42.5112 191.251 42.8463C191.286 43.1814 191.402 43.5029 191.589 43.7825C191.777 44.0621 192.03 44.2913 192.327 44.4499C192.624 44.6084 192.955 44.6915 193.291 44.6919H205.421C205.758 44.6925 206.089 44.61 206.387 44.4517C206.684 44.2934 206.938 44.0642 207.125 43.7843C207.313 43.5044 207.429 43.1825 207.463 42.847C207.498 42.5114 207.449 42.1727 207.321 41.8606H210.084C211.23 41.8605 212.328 42.3162 213.138 43.1273C213.949 43.9385 214.404 45.0387 214.404 46.1861Z" fill="#EEEEEE"/>
<path d="M210.377 69.9373H185.646V76.6222H210.377V69.9373Z" fill="url(#paint0_linear_1_1117)"/>
<path d="M211.358 75.4426H187.413C187.257 75.4425 187.107 75.3803 186.997 75.2697C186.886 75.1591 186.824 75.0092 186.824 74.8528V68.9543C186.824 68.798 186.886 68.648 186.997 68.5375C187.107 68.4269 187.257 68.3647 187.413 68.3645H211.358C211.514 68.3647 211.664 68.4269 211.774 68.5375C211.885 68.648 211.947 68.798 211.947 68.9543V74.8528C211.947 75.0092 211.885 75.1591 211.774 75.2697C211.664 75.3803 211.514 75.4425 211.358 75.4426ZM187.413 68.7577C187.361 68.7578 187.311 68.7785 187.274 68.8154C187.237 68.8522 187.217 68.9022 187.217 68.9543V74.8528C187.217 74.9049 187.237 74.9549 187.274 74.9918C187.311 75.0287 187.361 75.0494 187.413 75.0494H211.358C211.41 75.0494 211.46 75.0287 211.497 74.9918C211.534 74.9549 211.554 74.9049 211.555 74.8528V68.9543C211.554 68.9022 211.534 68.8522 211.497 68.8154C211.46 68.7785 211.41 68.7578 211.358 68.7577H187.413Z" fill="#212121"/>
<path d="M191.535 73.6731H188.394V74.0663H191.535V73.6731Z" fill="#212121"/>
<path d="M195.853 73.6731H192.712V74.0663H195.853V73.6731Z" fill="#212121"/>
<path d="M200.171 73.6731H197.03V74.0663H200.171V73.6731Z" fill="#212121"/>
<path d="M204.489 73.6731H201.348V74.0663H204.489V73.6731Z" fill="#212121"/>
<path d="M208.807 73.6731H205.666V74.0663H208.807V73.6731Z" fill="#212121"/>
<path opacity="0.1" d="M214.404 95.4501V101.026C214.404 102.174 213.949 103.275 213.139 104.086C212.329 104.898 211.23 105.354 210.084 105.354H188.81C188.243 105.354 187.681 105.242 187.157 105.024C186.633 104.807 186.157 104.488 185.756 104.086C185.355 103.684 185.037 103.207 184.82 102.682C184.604 102.157 184.492 101.594 184.492 101.026V75.3757L214.404 95.4501Z" fill="#212121"/>
<path d="M112.436 90.3853H19.5982V136H112.436V90.3853Z" fill="#EEEEEE"/>
<path opacity="0.1" d="M88.834 136H19.9908C19.8868 136 19.7871 135.958 19.7135 135.884C19.64 135.811 19.5985 135.711 19.5982 135.607V90.7785C19.5985 90.6743 19.64 90.5744 19.7135 90.5008C19.7871 90.4271 19.8868 90.3856 19.9908 90.3853H20.8622L88.834 136Z" fill="#212121"/>
<path d="M206.451 96.4805H62.5823V96.8737H206.451V96.4805Z" fill="#212121"/>
<path d="M108.067 0.848936H66.9498V0H48.3056V0.848936H7.01862C6.65338 0.848936 6.29171 0.921001 5.95427 1.06102C5.61683 1.20103 5.31022 1.40626 5.05195 1.66497C4.79369 1.92368 4.58882 2.23082 4.44905 2.56885C4.30927 2.90688 4.23733 3.26917 4.23734 3.63505V60.0352C4.23733 60.7742 4.53036 61.4828 5.05195 62.0053C5.57355 62.5278 6.28098 62.8214 7.01862 62.8214H108.067C108.805 62.8214 109.512 62.5278 110.034 62.0053C110.556 61.4828 110.849 60.7742 110.849 60.0352V3.63505C110.849 3.26917 110.777 2.90688 110.637 2.56885C110.497 2.23082 110.292 1.92368 110.034 1.66497C109.776 1.40626 109.469 1.20103 109.132 1.06102C108.794 0.921001 108.433 0.848936 108.067 0.848936Z" fill="#666161"/>
<path d="M107.119 5.77197H7.96704V61.8033H107.119V5.77197Z" fill="#EEEEEE"/>
<path d="M57.4582 4.24473C58.0198 4.24473 58.4751 3.78863 58.4751 3.226C58.4751 2.66337 58.0198 2.20728 57.4582 2.20728C56.8965 2.20728 56.4412 2.66337 56.4412 3.226C56.4412 3.78863 56.8965 4.24473 57.4582 4.24473Z" fill="#32E0C4"/>
<path d="M37.4592 26.6819H35.1039C34.9478 26.6817 34.7981 26.6195 34.6878 26.5089C34.5774 26.3984 34.5153 26.2484 34.5151 26.092V23.7327C34.5153 23.5763 34.5774 23.4264 34.6878 23.3158C34.7981 23.2052 34.9478 23.143 35.1039 23.1428H37.4592C37.6153 23.143 37.765 23.2052 37.8754 23.3158C37.9858 23.4264 38.0479 23.5763 38.048 23.7327V26.092C38.0479 26.2484 37.9858 26.3984 37.8754 26.5089C37.765 26.6195 37.6153 26.6817 37.4592 26.6819ZM35.1039 23.5361C35.0519 23.5361 35.002 23.5569 34.9652 23.5937C34.9284 23.6306 34.9077 23.6805 34.9077 23.7327V26.092C34.9077 26.1442 34.9284 26.1941 34.9652 26.231C35.002 26.2679 35.0519 26.2886 35.1039 26.2887H37.4592C37.5113 26.2886 37.5611 26.2679 37.5979 26.231C37.6347 26.1941 37.6554 26.1442 37.6555 26.092V23.7327C37.6554 23.6805 37.6347 23.6306 37.5979 23.5937C37.5611 23.5569 37.5113 23.5361 37.4592 23.5361H35.1039Z" fill="#212121"/>
<path d="M79.4619 26.2888H34.7114V26.682H79.4619V26.2888Z" fill="#212121"/>
<path d="M78.2843 37.1025H67.8817V40.2484H78.2843V37.1025Z" fill="url(#paint1_linear_1_1117)"/>
<path d="M79.0694 39.4619H69.4519C69.2958 39.4618 69.1461 39.3996 69.0357 39.289C68.9254 39.1784 68.8633 39.0285 68.8631 38.8721V36.5127C68.8633 36.3563 68.9254 36.2064 69.0357 36.0958C69.1461 35.9852 69.2958 35.923 69.4519 35.9229H79.0694C79.2255 35.923 79.3751 35.9852 79.4855 36.0958C79.5959 36.2064 79.658 36.3563 79.6582 36.5127V38.8721C79.658 39.0285 79.5959 39.1784 79.4855 39.289C79.3751 39.3996 79.2255 39.4618 79.0694 39.4619ZM69.4519 36.3161C69.3999 36.3161 69.35 36.3369 69.3132 36.3737C69.2764 36.4106 69.2557 36.4606 69.2556 36.5127V38.8721C69.2557 38.9242 69.2764 38.9742 69.3132 39.011C69.35 39.0479 69.3999 39.0686 69.4519 39.0687H79.0694C79.1214 39.0686 79.1713 39.0479 79.2081 39.011C79.2449 38.9742 79.2656 38.9242 79.2656 38.8721V36.5127C79.2656 36.4606 79.2449 36.4106 79.2081 36.3737C79.1713 36.3369 79.1214 36.3161 79.0694 36.3161H69.4519Z" fill="#212121"/>
<path d="M157.775 40.6416H138.148V54.4047H157.775V40.6416Z" fill="url(#paint2_linear_1_1117)"/>
<path d="M159.738 53.3234H140.896C140.688 53.3232 140.488 53.2403 140.341 53.0928C140.194 52.9454 140.111 52.7455 140.111 52.537V39.5604C140.111 39.3519 140.194 39.152 140.341 39.0045C140.488 38.8571 140.688 38.7741 140.896 38.7739H159.738C159.946 38.7741 160.146 38.8571 160.293 39.0045C160.44 39.152 160.523 39.3519 160.523 39.5604V52.537C160.523 52.7455 160.44 52.9454 160.293 53.0928C160.146 53.2403 159.946 53.3232 159.738 53.3234ZM140.896 39.5604V52.537H159.739L159.738 39.5604H140.896Z" fill="#212121"/>
<path d="M157.579 39.0687H156.794C156.794 37.3479 156.112 35.6976 154.897 34.4808C153.682 33.264 152.035 32.5804 150.317 32.5804C148.599 32.5804 146.952 33.264 145.737 34.4808C144.522 35.6976 143.84 37.3479 143.84 39.0687H143.055C143.055 37.1393 143.82 35.289 145.182 33.9247C146.544 32.5604 148.391 31.7939 150.317 31.7939C152.243 31.7939 154.09 32.5604 155.452 33.9247C156.814 35.289 157.579 37.1393 157.579 39.0687Z" fill="#212121"/>
<path d="M152.28 44.4758C152.28 44.1334 152.191 43.7969 152.022 43.4994C151.853 43.202 151.609 42.9541 151.314 42.7801C151.02 42.6061 150.685 42.5122 150.344 42.5075C150.002 42.5029 149.665 42.5877 149.366 42.7536C149.067 42.9195 148.816 43.1608 148.639 43.4535C148.462 43.7462 148.364 44.0802 148.355 44.4224C148.346 44.7647 148.426 45.1033 148.588 45.4049C148.75 45.7064 148.988 45.9604 149.278 46.1416V48.2519C149.278 48.3886 149.305 48.524 149.357 48.6503C149.409 48.7766 149.486 48.8913 149.582 48.988C149.679 49.0846 149.793 49.1613 149.919 49.2136C150.045 49.2659 150.181 49.2928 150.317 49.2928C150.593 49.2928 150.857 49.1832 151.052 48.988C151.247 48.7928 151.356 48.528 151.356 48.2519V46.1416C151.639 45.9654 151.872 45.72 152.033 45.4285C152.195 45.1371 152.28 44.8092 152.28 44.4758Z" fill="#212121"/>
<path d="M58.9512 110.637H55.8109V111.03H58.9512V110.637Z" fill="#212121"/>
<path d="M63.2693 110.637H60.1289V111.03H63.2693V110.637Z" fill="#212121"/>
<path d="M67.5873 110.637H64.4469V111.03H67.5873V110.637Z" fill="#212121"/>
<path d="M71.9053 110.637H68.765V111.03H71.9053V110.637Z" fill="#212121"/>
<path d="M76.2234 110.637H73.083V111.03H76.2234V110.637Z" fill="#212121"/>
<path d="M116.558 132.658H24.5051C24.297 132.657 24.0974 132.574 23.9502 132.427C23.803 132.279 23.7203 132.08 23.72 131.871V87.0428C23.7203 86.8343 23.803 86.6344 23.9502 86.4869C24.0974 86.3395 24.297 86.2566 24.5051 86.2563H116.558C116.766 86.2566 116.965 86.3395 117.113 86.4869C117.26 86.6344 117.343 86.8343 117.343 87.0428V131.871C117.343 132.08 117.26 132.279 117.113 132.427C116.965 132.574 116.766 132.657 116.558 132.658ZM24.5051 87.0428V131.871H116.558L116.558 87.0428H24.5051Z" fill="#212121"/>
<path d="M28.6269 93.7278C29.2773 93.7278 29.8045 93.1996 29.8045 92.5481C29.8045 91.8966 29.2773 91.3684 28.6269 91.3684C27.9765 91.3684 27.4492 91.8966 27.4492 92.5481C27.4492 93.1996 27.9765 93.7278 28.6269 93.7278Z" fill="#212121"/>
<path d="M32.7486 93.7278C33.399 93.7278 33.9263 93.1996 33.9263 92.5481C33.9263 91.8966 33.399 91.3684 32.7486 91.3684C32.0982 91.3684 31.571 91.8966 31.571 92.5481C31.571 93.1996 32.0982 93.7278 32.7486 93.7278Z" fill="#212121"/>
<path d="M36.8704 93.7278C37.5208 93.7278 38.048 93.1996 38.048 92.5481C38.048 91.8966 37.5208 91.3684 36.8704 91.3684C36.22 91.3684 35.6927 91.8966 35.6927 92.5481C35.6927 93.1996 36.22 93.7278 36.8704 93.7278Z" fill="#212121"/>
<path d="M79.2656 113.389H52.7686C52.6125 113.389 52.4628 113.327 52.3524 113.216C52.242 113.106 52.1799 112.956 52.1798 112.799V106.115C52.1799 105.958 52.242 105.808 52.3524 105.698C52.4628 105.587 52.6125 105.525 52.7686 105.525H79.2656C79.4217 105.525 79.5714 105.587 79.6818 105.698C79.7922 105.808 79.8543 105.958 79.8545 106.115V112.799C79.8543 112.956 79.7922 113.106 79.6818 113.216C79.5714 113.327 79.4217 113.389 79.2656 113.389ZM52.7686 105.918C52.7166 105.918 52.6667 105.939 52.6299 105.976C52.5931 106.012 52.5724 106.062 52.5723 106.115V112.799C52.5724 112.852 52.5931 112.902 52.6299 112.938C52.6667 112.975 52.7166 112.996 52.7686 112.996H79.2656C79.3177 112.996 79.3676 112.975 79.4044 112.938C79.4412 112.902 79.4619 112.852 79.4619 112.799V106.115C79.4619 106.062 79.4412 106.012 79.4044 105.976C79.3676 105.939 79.3177 105.918 79.2656 105.918H52.7686Z" fill="#212121"/>
<path d="M85.9389 113.586C87.8901 113.586 89.4719 112.001 89.4719 110.047C89.4719 108.092 87.8901 106.508 85.9389 106.508C83.9878 106.508 82.406 108.092 82.406 110.047C82.406 112.001 83.9878 113.586 85.9389 113.586Z" fill="url(#paint3_linear_1_1117)"/>
<path d="M87.1166 113.193C86.379 113.193 85.658 112.973 85.0448 112.563C84.4315 112.153 83.9535 111.569 83.6713 110.886C83.389 110.204 83.3152 109.453 83.459 108.728C83.6029 108.003 83.9581 107.338 84.4797 106.815C85.0012 106.293 85.6657 105.937 86.3891 105.793C87.1125 105.649 87.8623 105.723 88.5437 106.006C89.2251 106.288 89.8076 106.767 90.2173 107.381C90.6271 107.996 90.8458 108.718 90.8458 109.457C90.8447 110.447 90.4514 111.397 89.7523 112.097C89.0532 112.797 88.1053 113.191 87.1166 113.193ZM87.1166 106.114C86.4567 106.114 85.8116 106.31 85.2629 106.678C84.7141 107.045 84.2865 107.567 84.0339 108.178C83.7814 108.789 83.7153 109.461 83.8441 110.109C83.9728 110.757 84.2906 111.353 84.7572 111.82C85.2239 112.288 85.8184 112.606 86.4657 112.735C87.1129 112.864 87.7838 112.798 88.3935 112.545C89.0032 112.292 89.5243 111.864 89.8909 111.314C90.2576 110.764 90.4533 110.118 90.4533 109.457C90.4523 108.571 90.1004 107.721 89.4749 107.094C88.8494 106.468 88.0012 106.115 87.1166 106.114Z" fill="#212121"/>
<path d="M87.169 110.852L85.2688 108.948L85.8239 108.392L87.0642 109.635L90.5249 104.708L91.1669 105.161L87.169 110.852Z" fill="#212121"/>
<path opacity="0.1" d="M85.1361 61.8033H7.96698V10.0168L85.1361 61.8033Z" fill="#212121"/>
<path d="M113.633 60.7839H103.956V60.0855C103.956 60.0673 103.952 60.0493 103.945 60.0325C103.938 60.0157 103.928 60.0004 103.915 59.9876C103.902 59.9747 103.887 59.9645 103.87 59.9576C103.854 59.9506 103.836 59.947 103.818 59.947H100.5C100.482 59.947 100.464 59.9506 100.447 59.9576C100.43 59.9645 100.415 59.9747 100.402 59.9876C100.389 60.0004 100.379 60.0157 100.372 60.0325C100.365 60.0493 100.362 60.0673 100.362 60.0855V60.7839H98.288V60.0855C98.288 60.0673 98.2844 60.0493 98.2775 60.0325C98.2706 60.0157 98.2604 60.0004 98.2475 59.9876C98.2347 59.9747 98.2195 59.9645 98.2027 59.9576C98.1859 59.9506 98.1679 59.947 98.1498 59.947H94.832C94.8139 59.947 94.7959 59.9506 94.7791 59.9576C94.7624 59.9645 94.7471 59.9747 94.7343 59.9876C94.7215 60.0004 94.7113 60.0157 94.7043 60.0325C94.6974 60.0493 94.6938 60.0673 94.6938 60.0855V60.7839H92.6202V60.0855C92.6202 60.0673 92.6166 60.0493 92.6097 60.0325C92.6028 60.0157 92.5926 60.0004 92.5797 59.9876C92.5669 59.9747 92.5517 59.9645 92.5349 59.9576C92.5181 59.9506 92.5001 59.947 92.482 59.947H89.1642C89.1461 59.947 89.1281 59.9506 89.1113 59.9576C89.0946 59.9645 89.0793 59.9747 89.0665 59.9876C89.0536 60.0004 89.0435 60.0157 89.0365 60.0325C89.0296 60.0493 89.026 60.0673 89.026 60.0855V60.7839H86.9524V60.0855C86.9524 60.0673 86.9488 60.0493 86.9419 60.0325C86.9349 60.0157 86.9248 60.0004 86.9119 59.9876C86.8991 59.9747 86.8839 59.9645 86.8671 59.9576C86.8503 59.9506 86.8323 59.947 86.8142 59.947H83.4964C83.4783 59.947 83.4603 59.9506 83.4435 59.9576C83.4268 59.9645 83.4115 59.9747 83.3987 59.9876C83.3858 60.0004 83.3757 60.0157 83.3687 60.0325C83.3618 60.0493 83.3582 60.0673 83.3582 60.0855V60.7839H81.2846V60.0855C81.2846 60.0673 81.281 60.0493 81.2741 60.0325C81.2671 60.0157 81.257 60.0004 81.2441 59.9876C81.2313 59.9747 81.216 59.9645 81.1993 59.9576C81.1825 59.9506 81.1645 59.947 81.1464 59.947H77.8286C77.8105 59.947 77.7925 59.9506 77.7757 59.9576C77.759 59.9645 77.7437 59.9747 77.7309 59.9876C77.718 60.0004 77.7079 60.0157 77.7009 60.0325C77.694 60.0493 77.6904 60.0673 77.6904 60.0855V60.7839H75.6168V60.0855C75.6168 60.0673 75.6132 60.0493 75.6063 60.0325C75.5993 60.0157 75.5892 60.0004 75.5763 59.9876C75.5635 59.9747 75.5482 59.9645 75.5315 59.9576C75.5147 59.9506 75.4967 59.947 75.4786 59.947H72.1608C72.1427 59.947 72.1247 59.9506 72.1079 59.9576C72.0911 59.9645 72.0759 59.9747 72.0631 59.9876C72.0502 60.0004 72.0401 60.0157 72.0331 60.0325C72.0262 60.0493 72.0226 60.0673 72.0226 60.0855V60.7839H69.949V60.0855C69.949 60.0673 69.9454 60.0493 69.9385 60.0325C69.9315 60.0157 69.9213 60.0004 69.9085 59.9876C69.8957 59.9747 69.8804 59.9645 69.8637 59.9576C69.8469 59.9506 69.8289 59.947 69.8108 59.947H43.8218C43.8037 59.947 43.7857 59.9506 43.7689 59.9576C43.7521 59.9645 43.7369 59.9747 43.7241 59.9876C43.7112 60.0004 43.701 60.0157 43.6941 60.0325C43.6871 60.0493 43.6836 60.0673 43.6836 60.0855V60.7839H41.61V60.0855C41.61 60.0673 41.6064 60.0493 41.5995 60.0325C41.5925 60.0157 41.5823 60.0004 41.5695 59.9876C41.5566 59.9747 41.5414 59.9645 41.5246 59.9576C41.5079 59.9506 41.4899 59.947 41.4717 59.947H38.154C38.1358 59.947 38.1179 59.9506 38.1011 59.9576C38.0843 59.9645 38.0691 59.9747 38.0562 59.9876C38.0434 60.0004 38.0332 60.0157 38.0263 60.0325C38.0193 60.0493 38.0158 60.0673 38.0158 60.0855V60.7839H35.9422V60.0855C35.9422 60.0673 35.9386 60.0493 35.9317 60.0325C35.9247 60.0157 35.9145 60.0004 35.9017 59.9876C35.8888 59.9747 35.8736 59.9645 35.8568 59.9576C35.8401 59.9506 35.8221 59.947 35.8039 59.947H32.4862C32.468 59.947 32.4501 59.9506 32.4333 59.9576C32.4165 59.9645 32.4013 59.9747 32.3884 59.9876C32.3756 60.0004 32.3654 60.0157 32.3585 60.0325C32.3515 60.0493 32.348 60.0673 32.348 60.0855V60.7839H30.2744V60.0855C30.2744 60.0673 30.2708 60.0493 30.2638 60.0325C30.2569 60.0157 30.2467 60.0004 30.2339 59.9876C30.221 59.9747 30.2058 59.9645 30.189 59.9576C30.1723 59.9506 30.1543 59.947 30.1361 59.947H26.8184C26.8002 59.947 26.7823 59.9506 26.7655 59.9576C26.7487 59.9645 26.7335 59.9747 26.7206 59.9876C26.7078 60.0004 26.6976 60.0157 26.6907 60.0325C26.6837 60.0493 26.6802 60.0673 26.6802 60.0855V60.7839H24.6066V60.0855C24.6066 60.0673 24.603 60.0493 24.596 60.0325C24.5891 60.0157 24.5789 60.0004 24.5661 59.9876C24.5532 59.9747 24.538 59.9645 24.5212 59.9576C24.5045 59.9506 24.4865 59.947 24.4683 59.947H21.1506C21.1324 59.947 21.1145 59.9506 21.0977 59.9576C21.0809 59.9645 21.0657 59.9747 21.0528 59.9876C21.04 60.0004 21.0298 60.0157 21.0229 60.0325C21.0159 60.0493 21.0123 60.0673 21.0123 60.0855V60.7839H18.9388V60.0855C18.9388 60.0673 18.9352 60.0493 18.9282 60.0325C18.9213 60.0157 18.9111 60.0004 18.8983 59.9876C18.8854 59.9747 18.8702 59.9645 18.8534 59.9576C18.8367 59.9506 18.8187 59.947 18.8005 59.947H15.4828C15.4646 59.947 15.4467 59.9506 15.4299 59.9576C15.4131 59.9645 15.3979 59.9747 15.385 59.9876C15.3722 60.0004 15.362 60.0157 15.3551 60.0325C15.3481 60.0493 15.3445 60.0673 15.3445 60.0855V60.7839H13.271V60.0855C13.271 60.0673 13.2674 60.0493 13.2604 60.0325C13.2535 60.0157 13.2433 60.0004 13.2305 59.9876C13.2176 59.9747 13.2024 59.9645 13.1856 59.9576C13.1688 59.9506 13.1509 59.947 13.1327 59.947H9.81498C9.79682 59.947 9.77885 59.9506 9.76208 59.9576C9.7453 59.9645 9.73006 59.9747 9.71723 59.9876C9.70439 60.0004 9.69421 60.0157 9.68726 60.0325C9.68032 60.0493 9.67674 60.0673 9.67674 60.0855V60.7839H3.31774C2.88205 60.7839 2.45062 60.8699 2.04809 61.0369C1.64557 61.2039 1.27982 61.4487 0.971742 61.7573C0.663662 62.066 0.419279 62.4323 0.252547 62.8356C0.0858153 63.2388 -2.57751e-07 63.671 0 64.1074V65.6102C2.0822e-06 66.4917 0.349549 67.337 0.971746 67.9603C1.59394 68.5836 2.43782 68.9337 3.31774 68.9337H113.633C114.068 68.9337 114.5 68.8478 114.902 68.6807C115.305 68.5137 115.67 68.2689 115.979 67.9603C116.287 67.6517 116.531 67.2853 116.698 66.8821C116.864 66.4788 116.95 66.0467 116.95 65.6102V64.1074C116.95 63.671 116.864 63.2388 116.698 62.8356C116.531 62.4323 116.287 62.066 115.979 61.7573C115.67 61.4487 115.305 61.2039 114.902 61.0369C114.5 60.8699 114.068 60.7839 113.633 60.7839Z" fill="#666161"/>
<path d="M83.3874 42.8044H31.571C31.4149 42.8043 31.2652 42.7421 31.1548 42.6315C31.0444 42.5209 30.9823 42.371 30.9821 42.2146V20.5869C30.9823 20.4305 31.0444 20.2806 31.1548 20.17C31.2652 20.0594 31.4149 19.9972 31.571 19.9971H83.3874C83.5435 19.9972 83.6932 20.0594 83.8036 20.17C83.9139 20.2806 83.976 20.4305 83.9762 20.5869V42.2146C83.976 42.371 83.9139 42.5209 83.8036 42.6315C83.6932 42.7421 83.5435 42.8043 83.3874 42.8044ZM31.571 20.3903C31.5189 20.3904 31.4691 20.4111 31.4323 20.448C31.3955 20.4848 31.3748 20.5348 31.3747 20.5869V42.2146C31.3748 42.2667 31.3955 42.3167 31.4323 42.3535C31.4691 42.3904 31.5189 42.4111 31.571 42.4112H83.3874C83.4394 42.4111 83.4893 42.3904 83.5261 42.3535C83.5629 42.3167 83.5836 42.2667 83.5837 42.2146V20.5869C83.5836 20.5348 83.5629 20.4848 83.5261 20.448C83.4893 20.4111 83.4394 20.3904 83.3874 20.3903H31.571Z" fill="#212121"/>
<path d="M37.4592 32.5806H35.1039C34.9478 32.5804 34.7981 32.5182 34.6878 32.4076C34.5774 32.297 34.5153 32.1471 34.5151 31.9907V29.6313C34.5153 29.475 34.5774 29.325 34.6878 29.2145C34.7981 29.1039 34.9478 29.0417 35.1039 29.0415H37.4592C37.6153 29.0417 37.765 29.1039 37.8754 29.2145C37.9858 29.325 38.0479 29.475 38.048 29.6313V31.9907C38.0479 32.1471 37.9858 32.297 37.8754 32.4076C37.765 32.5182 37.6153 32.5804 37.4592 32.5806ZM35.1039 29.4347C35.0519 29.4348 35.002 29.4555 34.9652 29.4924C34.9284 29.5293 34.9077 29.5792 34.9077 29.6313V31.9907C34.9077 32.0429 34.9284 32.0928 34.9652 32.1297C35.002 32.1665 35.0519 32.1873 35.1039 32.1873H37.4592C37.5113 32.1873 37.5611 32.1665 37.5979 32.1297C37.6347 32.0928 37.6554 32.0429 37.6555 31.9907V29.6313C37.6554 29.5792 37.6347 29.5293 37.5979 29.4924C37.5611 29.4555 37.5113 29.4348 37.4592 29.4347H35.1039Z" fill="#212121"/>
<path d="M79.4619 32.1873H34.7114V32.5805H79.4619V32.1873Z" fill="#212121"/>
<path d="M195.852 53.0283H51.9835V53.4216H195.852V53.0283Z" fill="#212121"/>
<path d="M51.9835 55.7811C53.5011 55.7811 54.7313 54.5487 54.7313 53.0285C54.7313 51.5083 53.5011 50.2759 51.9835 50.2759C50.4659 50.2759 49.2357 51.5083 49.2357 53.0285C49.2357 54.5487 50.4659 55.7811 51.9835 55.7811Z" fill="#212121"/>
<path d="M195.853 55.5843C197.045 55.5843 198.012 54.616 198.012 53.4216C198.012 52.2271 197.045 51.2588 195.853 51.2588C194.66 51.2588 193.694 52.2271 193.694 53.4216C193.694 54.616 194.66 55.5843 195.853 55.5843Z" fill="#212121"/>
<path d="M206.451 99.0365C207.644 99.0365 208.61 98.0682 208.61 96.8737C208.61 95.6792 207.644 94.7109 206.451 94.7109C205.259 94.7109 204.292 95.6792 204.292 96.8737C204.292 98.0682 205.259 99.0365 206.451 99.0365Z" fill="#212121"/>
<path d="M63.1711 99.0365C64.3635 99.0365 65.3302 98.0682 65.3302 96.8737C65.3302 95.6792 64.3635 94.7109 63.1711 94.7109C61.9787 94.7109 61.0121 95.6792 61.0121 96.8737C61.0121 98.0682 61.9787 99.0365 63.1711 99.0365Z" fill="#212121"/>
</g>
<defs>
<linearGradient id="paint0_linear_1_1117" x1="198.012" y1="67.4344" x2="197.778" y2="76.6162" gradientUnits="userSpaceOnUse">
<stop offset="0.140625" stop-color="white"/>
<stop offset="0.90625" stop-color="#0D7377"/>
</linearGradient>
<linearGradient id="paint1_linear_1_1117" x1="73.083" y1="35.9247" x2="72.9602" y2="40.2449" gradientUnits="userSpaceOnUse">
<stop offset="0.140625" stop-color="white"/>
<stop offset="0.90625" stop-color="#0D7377"/>
</linearGradient>
<linearGradient id="paint2_linear_1_1117" x1="147.962" y1="35.4886" x2="146.72" y2="54.3228" gradientUnits="userSpaceOnUse">
<stop offset="0.140625" stop-color="white"/>
<stop offset="0.90625" stop-color="#0D7377"/>
</linearGradient>
<linearGradient id="paint3_linear_1_1117" x1="85.9389" y1="103.858" x2="85.031" y2="113.5" gradientUnits="userSpaceOnUse">
<stop offset="0.140625" stop-color="white"/>
<stop offset="0.90625" stop-color="#0D7377"/>
</linearGradient>
<clipPath id="clip0_1_1117">
<rect width="216" height="136" fill="white"/>
</clipPath>
</defs>
</svg>
